<?xml version="1.0" encoding="UTF-8" standalone="no"?>
<!-- Created with Inkscape (http://www.inkscape.org/) -->

<svg
   width="213.10994mm"
   height="171.45995mm"
   viewBox="0 0 213.10994 171.45995"
   version="1.1"
   id="svg1"
   xml:space="preserve"
   inkscape:version="1.4.3 (0d15f75042, 2025-12-25)"
   sodipodi:docname="kys.svg"
   xmlns:inkscape="http://www.inkscape.org/namespaces/inkscape"
   xmlns:sodipodi="http://sodipodi.sourceforge.net/DTD/sodipodi-0.dtd"
   xmlns="http://www.w3.org/2000/svg"
   xmlns:svg="http://www.w3.org/2000/svg"><sodipodi:namedview
     id="namedview1"
     pagecolor="#ffffff"
     bordercolor="#000000"
     borderopacity="0.25"
     inkscape:showpageshadow="2"
     inkscape:pageopacity="0.0"
     inkscape:pagecheckerboard="0"
     inkscape:deskcolor="#d1d1d1"
     inkscape:document-units="mm"
     inkscape:zoom="0.53858424"
     inkscape:cx="304.50204"
     inkscape:cy="324.92596"
     inkscape:window-width="1920"
     inkscape:window-height="1052"
     inkscape:window-x="0"
     inkscape:window-y="0"
     inkscape:window-maximized="1"
     inkscape:current-layer="layer1" /><defs
     id="defs1" /><g
     inkscape:label="Layer 1"
     inkscape:groupmode="layer"
     id="layer1"
     transform="translate(-20.902083,-80.428358)"><g
       style="fill:#000000;stroke:#000000;stroke-opacity:0.89999998"
       id="g3"
       transform="matrix(0.16160132,0,0,0.16160132,151.27215,106.32955)"><g
         id="g2"
         style="stroke:#000000;stroke-opacity:0.89999998"><path
           d="m 496,224 c 8.836,0 16,-7.164 16,-16 v -80 c 0,-8.836 -7.164,-16 -16,-16 -17.648,0 -32,-14.352 -32,-32 0,-8.836 -7.164,-16 -16,-16 H 80 C 80,55.164 72.836,48 64,48 55.164,48 48,55.164 48,64 H 16 C 7.164,64 0,71.164 0,80 v 96 c 0,8.836 7.164,16 16,16 v 48 c 0,8.836 7.164,16 16,16 h 144 c 0,52.938 43.063,96 96,96 h 49.043 l 15.145,98.438 C 337.391,458.234 344.102,464 352,464 h 144 c 4.672,0 9.102,-2.031 12.141,-5.578 3.039,-3.547 4.383,-8.234 3.672,-12.859 L 480.032,238.985 C 480.555,230.633 487.516,224 496,224 Z m -224,96 c -35.289,0 -64,-28.711 -64,-64 h 72 c 0,8.82 -7.18,16 -16,16 -8.836,0 -16,7.164 -16,16 0,8.836 7.164,16 16,16 20.581,0 38.029,-13.084 44.84,-31.318 L 316.12,320 Z M 480,194.742 c -18.625,6.602 -32,24.398 -32,45.258 0,0.813 0.063,1.625 0.188,2.43 L 477.352,432 H 365.727 L 335.813,237.57 C 334.609,229.766 327.898,224 320,224 H 48 V 192 H 480 Z M 480,160 H 32 V 96 h 402.023 c 5.805,22.461 23.516,40.172 45.977,45.977 z"
           id="path1-3"
           style="stroke:#000000;stroke-opacity:0.89999998" /><path
           d="m 392,408 h 48 c 4.68,0 9.125,-2.047 12.164,-5.609 3.039,-3.555 4.367,-8.266 3.641,-12.883 l -24,-152 C 430.578,229.727 423.875,224 416,224 h -48 c -4.68,0 -9.125,2.047 -12.164,5.609 -3.039,3.555 -4.367,8.266 -3.641,12.883 l 24,152 C 377.422,402.273 384.125,408 392,408 Z m 10.328,-152 18.945,120 H 405.671 L 386.726,256 Z"
           id="path2-6"
           style="stroke:#000000;stroke-opacity:0.89999998" /></g></g><g
       style="fill:none;stroke:#000000;stroke-opacity:1"
       id="g4"
       transform="matrix(0.52916667,0,0,0.52916667,-4.4979173,60.329974)"><path
         d="m 87.8868,252.962 c -7.1518,-11.854 -7.7793,-24.99 -9.3352,-38.02 -5.6792,-47.59 8.4309,-28.285 18.0873,-59.747 7.4251,-24.194 5.6771,-54.073 19.8361,-76.0424 20.021,-31.0637 68.884,-39.7625 107.132,-28.3386 82.484,28.3386 45.239,63.478 73.484,104.381 21.961,31.803 32.755,67.427 9,104.286"
         stroke="#000000"
         stroke-opacity="0.9"
         stroke-width="16"
         stroke-linecap="round"
         stroke-linejoin="round"
         id="path1-7"
         style="stroke:#000000;stroke-opacity:1" /><path
         d="m 220.773,83.4385 c -13.226,29.3935 -43.059,43.7975 -74.528,45.1065 -6.037,0.252 -10.652,-0.286 -16.319,-2.173"
         stroke="#000000"
         stroke-opacity="0.9"
         stroke-width="16"
         stroke-linecap="round"
         stroke-linejoin="round"
         id="path2-5"
         style="stroke:#000000;stroke-opacity:1" /><path
         d="m 221.246,83.4385 c 4.621,16.7605 17.556,31.9625 30.689,38.9895"
         stroke="#000000"
         stroke-opacity="0.9"
         stroke-width="16"
         stroke-linecap="round"
         stroke-linejoin="round"
         id="path3-3"
         style="stroke:#000000;stroke-opacity:1" /><path
         d="m 177.829,177.958 c -0.046,-5.922 -0.354,-12.001 0.744,-17.723"
         stroke="#000000"
         stroke-opacity="0.9"
         stroke-width="16"
         stroke-linecap="round"
         stroke-linejoin="round"
         id="path4"
         style="stroke:#000000;stroke-opacity:1" /><path
         d="m 221.246,175.595 c 0,-5.981 1.18,-11.9 1.18,-18.904"
         stroke="#000000"
         stroke-opacity="0.9"
         stroke-width="16"
         stroke-linecap="round"
         stroke-linejoin="round"
         id="path5"
         style="stroke:#000000;stroke-opacity:1" /><path
         d="m 159.869,159.054 c 26.169,-5.73 55.418,-8.742 82.623,-2.225"
         stroke="#000000"
         stroke-opacity="0.9"
         stroke-width="16"
         stroke-linecap="round"
         stroke-linejoin="round"
         id="path6"
         style="stroke:#000000;stroke-opacity:1" /><path
         d="M 136,264 C 88.4051,278.211 64.1013,307.579 56,354"
         stroke="#000000"
         stroke-opacity="0.9"
         stroke-width="16"
         stroke-linecap="round"
         stroke-linejoin="round"
         id="path7"
         style="stroke:#000000;stroke-opacity:1" /><path
         d="m 258,259.188 c 47.642,-4.099 78.598,59.73 86,94.812"
         stroke="#000000"
         stroke-opacity="0.9"
         stroke-width="16"
         stroke-linecap="round"
         stroke-linejoin="round"
         id="path8"
         style="stroke:#000000;stroke-opacity:1" /><path
         d="M 211,230.885 C 204.955,231.403 199.027,230 193,230"
         stroke="#000000"
         stroke-opacity="0.9"
         stroke-width="16"
         stroke-linecap="round"
         stroke-linejoin="round"
         id="path9"
         style="stroke:#000000;stroke-opacity:1" /><path
         d="m 233.314,254 c 13.69,-7.087 32.438,-23.695 32.438,-67.838 7.733,-8.175 18.56,-24.854 0,-26.162 M 165,254 c -22,-6.337 -39.396,-45.416 -39.396,-70.188 -5.8,-4.633 -11.31,-13.736 -4.35,-16.352"
         stroke="#000000"
         stroke-opacity="0.9"
         stroke-width="16"
         stroke-linecap="round"
         stroke-linejoin="round"
         id="path10"
         style="stroke:#000000;stroke-opacity:1" /><path
         d="m 203.5,279.5 c 16.5,0 35.633,-49.947 26.191,-63.038 C 220.248,203.371 139.501,189.5 184.5,277"
         stroke="#000000"
         stroke-opacity="0.9"
         stroke-width="16"
         stroke-linecap="round"
         stroke-linejoin="round"
         id="path11"
         style="stroke:#000000;stroke-opacity:1" /></g></g><style
     type="text/css"
     id="style1">
	.st0{fill:#000000;}
</style></svg>
