<?xml version="1.0" encoding="UTF-8" standalone="no"?>
<!-- Generator: Adobe Illustrator 25.2.0, SVG Export Plug-In . SVG Version: 6.00 Build 0)  -->

<svg
   version="1.1"
   id="Lager_1"
   x="0px"
   y="0px"
   viewBox="0 0 51.700001 30"
   overflow="visible"
   xml:space="preserve"
   sodipodi:docname="LiU-Black_Liu_noText.svg"
   width="51.700001"
   height="30"
   inkscape:version="1.4.3 (0d15f75042, 2025-12-25)"
   xmlns:inkscape="http://www.inkscape.org/namespaces/inkscape"
   xmlns:sodipodi="http://sodipodi.sourceforge.net/DTD/sodipodi-0.dtd"
   xmlns="http://www.w3.org/2000/svg"
   xmlns:svg="http://www.w3.org/2000/svg"><defs
   id="defs3" /><sodipodi:namedview
   id="namedview3"
   pagecolor="#ffffff"
   bordercolor="#000000"
   borderopacity="0.25"
   inkscape:showpageshadow="2"
   inkscape:pageopacity="0.0"
   inkscape:pagecheckerboard="0"
   inkscape:deskcolor="#d1d1d1"
   inkscape:zoom="5.61"
   inkscape:cx="-21.746881"
   inkscape:cy="15.062389"
   inkscape:window-width="1920"
   inkscape:window-height="1052"
   inkscape:window-x="0"
   inkscape:window-y="0"
   inkscape:window-maximized="1"
   inkscape:current-layer="Lager_1" />
<path
   d="m 42.7,20.8 c 0,1 -0.4,1.6 -1.3,1.6 -0.9,0 -1.3,-0.5 -1.3,-1.6 V 9.1 h -9 v 9.5 c 0,3.3 0.8,5.9 2.3,7.8 2,2.4 4.7,3.5 8,3.5 3.3,0 6,-1.1 8,-3.5 1.6,-1.9 2.3,-4.5 2.3,-7.8 V 9.1 h -9 z"
   id="path1" />
<path
   d="m 26.2,20.4 c -2.6,0 -4.8,2.2 -4.8,4.8 0,2.7 2.2,4.8 4.8,4.8 2.7,0 4.8,-2.1 4.8,-4.8 0,-2.7 -2.1,-4.8 -4.8,-4.8 z"
   id="path2" />
<rect
   x="11.2"
   y="9.1000004"
   width="9.1000004"
   height="20.200001"
   id="rect2" />
<rect
   y="0"
   width="9.1000004"
   height="29.299999"
   id="rect3"
   x="0" />
</svg>
