<?xml version="1.0" encoding="UTF-8" standalone="no"?>
<!-- Created with Inkscape (http://www.inkscape.org/) -->

<svg
   version="1.1"
   id="svg1"
   width="377.70773"
   height="94.616394"
   viewBox="0 0 377.70774 94.616396"
   sodipodi:docname="LiU_primar_vit.svg"
   inkscape:version="1.4.3 (0d15f75042, 2025-12-25)"
   xmlns:inkscape="http://www.inkscape.org/namespaces/inkscape"
   xmlns:sodipodi="http://sodipodi.sourceforge.net/DTD/sodipodi-0.dtd"
   xmlns="http://www.w3.org/2000/svg"
   xmlns:svg="http://www.w3.org/2000/svg">
  <defs
     id="defs1" />
  <sodipodi:namedview
     id="namedview1"
     pagecolor="#ffffff"
     bordercolor="#000000"
     borderopacity="0.25"
     inkscape:showpageshadow="2"
     inkscape:pageopacity="0.0"
     inkscape:pagecheckerboard="0"
     inkscape:deskcolor="#d1d1d1"
     inkscape:zoom="2.9705508"
     inkscape:cx="188.85386"
     inkscape:cy="47.297625"
     inkscape:window-width="1920"
     inkscape:window-height="1052"
     inkscape:window-x="0"
     inkscape:window-y="0"
     inkscape:window-maximized="1"
     inkscape:current-layer="layer-MC0">
    <inkscape:page
       x="0"
       y="0"
       inkscape:label="1"
       id="page1"
       width="377.70773"
       height="94.616394"
       margin="0"
       bleed="0" />
  </sodipodi:namedview>
  <g
     id="layer-MC0"
     inkscape:groupmode="layer"
     inkscape:label="Layer 1"
     transform="translate(-28.90172,-28.900273)">
    <path
       id="path1"
       d="M 0,0 H 21.439 V 47.79 H 0 V 32.285 Z"
       style="fill:#ffffff;fill-opacity:1;fill-rule:nonzero;stroke:none"
       transform="matrix(1.3333333,0,0,-1.3333333,64.331333,121.18827)" />
    <path
       id="path2"
       d="M 0,0 H 21.44 V 69.216 H 0 V 44.294 Z"
       style="fill:#ffffff;fill-opacity:1;fill-rule:nonzero;stroke:none"
       transform="matrix(1.3333333,0,0,-1.3333333,28.901733,121.18827)" />
    <path
       id="path3"
       d="m 0,0 c 0,6.301 -5.096,11.457 -11.433,11.457 -6.227,0 -11.323,-5.156 -11.323,-11.457 0,-6.301 5.096,-11.342 11.323,-11.342 C -5.096,-11.342 0,-6.301 0,0"
       style="fill:#ffffff;fill-opacity:1;fill-rule:nonzero;stroke:none"
       transform="matrix(1.3333333,0,0,-1.3333333,126.81507,108.394)" />
    <path
       id="path4"
       d="m 0,0 v -27.735 c 0,-2.458 -1.013,-3.687 -3.038,-3.687 -2.054,0 -3.081,1.229 -3.081,3.687 V 0 h -21.379 v -22.397 c 0,-7.889 1.853,-14.054 5.559,-18.492 4.769,-5.689 11.063,-8.27 18.879,-8.27 7.817,0 14.11,2.581 18.88,8.27 3.706,4.438 5.558,10.603 5.558,18.492 V 0 Z"
       style="fill:#ffffff;fill-opacity:1;fill-rule:nonzero;stroke:none"
       transform="matrix(1.3333333,0,0,-1.3333333,163.48373,57.468933)" />
    <path
       id="path5"
       d="M 0,0 H -1.699 L -1.727,0.044 -11.729,16.856 V 0 h -1.886 v 20.505 h 1.673 L -11.916,20.46 -1.886,3.59 V 20.505 H 0 Z"
       style="fill:#ffffff;fill-opacity:1;fill-rule:nonzero;stroke:none"
       transform="matrix(1.3333333,0,0,-1.3333333,250.7428,121.18693)" />
    <path
       id="path6"
       d="m 0,0 h -1.806 l -0.021,0.062 -6.695,20.443 h 1.981 L -6.52,20.442 -0.903,2.978 4.765,20.505 H 6.746 L 6.705,20.384 Z"
       style="fill:#ffffff;fill-opacity:1;fill-rule:nonzero;stroke:none"
       transform="matrix(1.3333333,0,0,-1.3333333,273.39653,121.18693)" />
    <path
       id="path7"
       d="m 0,0 c -4.058,0 -6.894,2.941 -6.894,7.153 v 13.581 h 1.885 V 7.096 c 0,-3.153 2.013,-5.27 5.009,-5.27 2.998,0 5.011,2.117 5.011,5.27 V 20.734 H 6.895 V 7.153 C 6.895,2.941 4.061,0 0,0"
       style="fill:#ffffff;fill-opacity:1;fill-rule:nonzero;stroke:none"
       transform="matrix(1.3333333,0,0,-1.3333333,217.3652,121.49293)" />
    <path
       id="path8"
       d="m 0,0 h -1.885 v 13.47 7.035 H 0 Z"
       style="fill:#ffffff;fill-opacity:1;fill-rule:nonzero;stroke:none"
       transform="matrix(1.3333333,0,0,-1.3333333,259.14907,121.18693)" />
    <path
       id="path9"
       d="M 0,0 H 3.942 C 7.17,0 9.096,1.764 9.096,4.721 v 0.806 c 0,3.119 -1.83,4.837 -5.154,4.837 H 0 Z M 11.02,-8.285 H 8.74 L 8.712,-8.249 3.811,-1.828 H 0 v -6.457 h -1.887 v 20.506 h 5.974 c 4.253,0 6.894,-2.588 6.894,-6.751 V 4.721 c 0,-3.373 -1.95,-5.694 -5.227,-6.235 z"
       style="fill:#ffffff;fill-opacity:1;fill-rule:nonzero;stroke:none"
       transform="matrix(1.3333333,0,0,-1.3333333,306.62307,110.13627)" />
    <path
       id="path10"
       d="m 0,0 h -1.885 v 13.467 7.039 H 0 Z"
       style="fill:#ffffff;fill-opacity:1;fill-rule:nonzero;stroke:none"
       transform="matrix(1.3333333,0,0,-1.3333333,349.4616,121.18307)" />
    <path
       id="path11"
       d="m 0,0 h -1.885 v 18.649 h -5.62 v 1.857 H 5.562 V 18.649 H 0 Z"
       style="fill:#ffffff;fill-opacity:1;fill-rule:nonzero;stroke:none"
       transform="matrix(1.3333333,0,0,-1.3333333,362.06573,121.18307)" />
    <path
       id="path12"
       d="M 0,0 H -11.454 V 20.506 H -0.436 V 18.649 H -9.57 v -7.424 h 6.86 V 9.512 H -9.57 V 1.828 H 0 Z"
       style="fill:#ffffff;fill-opacity:1;fill-rule:nonzero;stroke:none"
       transform="matrix(1.3333333,0,0,-1.3333333,387.46027,121.18307)" />
    <path
       id="path13"
       d="M 0,0 H -11.455 V 20.505 H -0.262 V 18.649 H -9.57 v -7.425 h 6.861 V 9.511 H -9.57 V 1.829 H 0 Z"
       style="fill:#ffffff;fill-opacity:1;fill-rule:nonzero;stroke:none"
       transform="matrix(1.3333333,0,0,-1.3333333,300.42507,121.18693)" />
    <path
       id="path14"
       d="m 0,0 h -1.885 v 18.649 h -5.36 v 1.857 H 5.648 V 18.649 H 0 Z"
       style="fill:#ffffff;fill-opacity:1;fill-rule:nonzero;stroke:none"
       transform="matrix(1.3333333,0,0,-1.3333333,399.0788,121.18307)" />
    <path
       id="path15"
       d="m 0,0 c -2.69,0.675 -5.232,1.312 -5.232,4.184 0,2.361 1.611,3.77 4.531,3.77 2.228,0 4.599,-1.275 4.711,-4.81 H 5.9 C 5.787,8.029 2.469,9.78 -0.643,9.78 c -4.056,0 -6.445,-2.144 -6.445,-5.596 0,-4.245 3.387,-5.101 6.376,-5.858 2.605,-0.656 5.066,-1.278 5.066,-3.972 0,-2.928 -2.543,-3.971 -4.924,-3.971 -3.118,0 -4.981,2.033 -4.981,5.441 v 0.093 h -1.855 v -0.093 c 0,-4.398 2.683,-7.24 6.836,-7.24 4.136,0 6.808,2.276 6.808,5.799 C 6.238,-1.565 3.067,-0.77 0,0"
       style="fill:#ffffff;fill-opacity:1;fill-rule:nonzero;stroke:none"
       transform="matrix(1.3333333,0,0,-1.3333333,333.85227,106.42267)" />
    <path
       id="path16"
       d="M 0,0 H -1.701 L -1.727,0.045 -11.73,16.859 V 0 h -1.885 v 20.506 h 1.672 L -11.916,20.461 -1.887,3.592 V 20.506 H 0 Z"
       style="fill:#ffffff;fill-opacity:1;fill-rule:nonzero;stroke:none"
       transform="matrix(1.3333333,0,0,-1.3333333,252.16467,84.808133)" />
    <path
       id="path17"
       d="M 0,0 H -1.701 L -1.728,0.045 -11.73,16.859 V 0 h -1.886 v 20.506 h 1.673 L -11.916,20.461 -1.887,3.592 V 20.506 H 0 Z"
       style="fill:#ffffff;fill-opacity:1;fill-rule:nonzero;stroke:none"
       transform="matrix(1.3333333,0,0,-1.3333333,348.16213,84.808133)" />
    <path
       id="path18"
       d="m 0,0 h -10.821 v 20.506 h 1.885 V 1.828 H 0 Z"
       style="fill:#ffffff;fill-opacity:1;fill-rule:nonzero;stroke:none"
       transform="matrix(1.3333333,0,0,-1.3333333,222.98507,84.808133)" />
    <path
       id="path19"
       d="m 0,0 h -1.884 v 14.253 6.253 H 0 Z"
       style="fill:#ffffff;fill-opacity:1;fill-rule:nonzero;stroke:none"
       transform="matrix(1.3333333,0,0,-1.3333333,228.46027,84.808133)" />
    <path
       id="path20"
       d="M 0,0 C -0.622,0 -1.148,0.526 -1.148,1.147 -1.148,1.77 -0.622,2.296 0,2.296 0.621,2.296 1.146,1.77 1.146,1.147 1.146,0.526 0.621,0 0,0 M 5.252,0 C 4.63,0 4.104,0.526 4.104,1.147 4.104,1.77 4.63,2.296 5.252,2.296 5.874,2.296 6.4,1.77 6.4,1.147 6.4,0.526 5.874,0 5.252,0 M 2.626,-2.714 c -2.996,0 -5.009,-2.119 -5.009,-5.269 v -6.86 c 0,-3.153 2.013,-5.27 5.009,-5.27 2.997,0 5.009,2.117 5.009,5.27 v 6.831 c 0,3.168 -2.012,5.298 -5.009,5.298 m 0,-19.225 c -4.061,0 -6.896,2.941 -6.896,7.152 v 6.717 c 0,4.229 2.835,7.182 6.896,7.182 4.059,0 6.894,-2.953 6.894,-7.182 v -6.717 c 0,-4.211 -2.835,-7.152 -6.894,-7.152"
       style="fill:#ffffff;fill-opacity:1;fill-rule:nonzero;stroke:none"
       transform="matrix(1.3333333,0,0,-1.3333333,282.44333,55.8608)" />
    <path
       id="path21"
       d="m 0,0 h 3.944 c 3.227,0 5.154,1.894 5.154,5.066 v 0.721 c 0,3.276 -1.879,5.154 -5.154,5.154 H 0 Z m 0,-7.709 h -1.884 v 20.506 h 5.885 c 4.242,0 6.981,-2.751 6.981,-7.01 V 5.038 c 0,-4.235 -2.674,-6.866 -6.981,-6.866 H 0 Z"
       style="fill:#ffffff;fill-opacity:1;fill-rule:nonzero;stroke:none"
       transform="matrix(1.3333333,0,0,-1.3333333,302.6296,74.529467)" />
    <path
       id="path22"
       d="m 0,0 h -1.886 v 13.18 7.326 H 0 Z"
       style="fill:#ffffff;fill-opacity:1;fill-rule:nonzero;stroke:none"
       transform="matrix(1.3333333,0,0,-1.3333333,324.166,84.808133)" />
    <path
       id="path23"
       d="m 0,0 c -4.043,0 -6.867,2.941 -6.867,7.154 v 6.831 c 0,4.212 2.824,7.154 6.867,7.154 3.971,0 6.806,-2.87 6.895,-6.979 V 14.066 H 5.011 L 5.01,14.157 C 4.955,17.24 2.941,19.312 0,19.312 c -3.119,0 -4.981,-2.153 -4.981,-5.76 V 7.125 c 0,-3.152 2.002,-5.269 4.981,-5.269 2.996,0 5.01,2.117 5.01,5.269 V 8.188 H -0.064 V 9.897 H 6.895 V 7.154 C 6.895,2.941 4.059,0 0,0"
       style="fill:#ffffff;fill-opacity:1;fill-rule:nonzero;stroke:none"
       transform="matrix(1.3333333,0,0,-1.3333333,362.27667,85.190933)" />
    <path
       id="path24"
       d="m 0,0 c -4.153,0 -6.837,2.84 -6.837,7.238 v 0.094 h 1.855 V 7.238 c 0,-3.406 1.864,-5.44 4.982,-5.44 2.38,0 4.923,1.042 4.923,3.972 0,2.693 -2.461,3.314 -5.065,3.971 -2.99,0.757 -6.379,1.612 -6.379,5.857 0,3.451 2.521,5.598 6.579,5.598 3.166,0 6.548,-1.812 6.548,-6.895 V 14.21 H 4.722 v 0.091 c 0,3.736 -2.439,5.068 -4.722,5.068 -2.921,0 -4.663,-1.41 -4.663,-3.771 0,-2.871 2.542,-3.509 5.232,-4.183 C 3.638,10.646 6.808,9.851 6.808,5.798 6.808,2.221 4.199,0 0,0"
       style="fill:#ffffff;fill-opacity:1;fill-rule:nonzero;stroke:none"
       transform="matrix(1.3333333,0,0,-1.3333333,384.5072,85.2664)" />
    <path
       id="path25"
       d="M 0,0 H -2.243 L -2.271,0.035 -9.4,9.542 h -2.104 V 0 h -1.885 v 20.506 h 1.885 v -9.194 h 2.132 l 6.086,9.194 h 2.157 L -7.797,10.411 Z"
       style="fill:#ffffff;fill-opacity:1;fill-rule:nonzero;stroke:none"
       transform="matrix(1.3333333,0,0,-1.3333333,276.2532,84.808133)" />
  </g>
</svg>
