<svg xmlns="http://www.w3.org/2000/svg" width="32" height="32" viewBox="0 0 32 32" class="ms-searchux-fjhf7 " aria-hidden="true" focusable="false"><path d="M20.992 0c1.024 0 1.984.128 2.944.384s1.792.64 2.624 1.088S28.096 2.56 28.8 3.2c.64.704 1.216 1.408 1.728 2.24s.832 1.664 1.088 2.624.384 1.92.384 2.944-.128 1.984-.384 2.944-.64 1.792-1.088 2.624-1.088 1.536-1.728 2.176c-.704.64-1.408 1.216-2.24 1.728s-1.664.832-2.624 1.088-1.92.384-2.944.384c-1.28 0-2.56-.192-3.712-.64a10.46 10.46 0 01-3.264-1.92L1.728 31.68c-.192.192-.448.32-.704.32s-.512-.128-.704-.32-.32-.384-.32-.704.128-.512.32-.704l12.224-12.288a12.145 12.145 0 01-1.92-3.264c-.448-1.216-.64-2.432-.64-3.712 0-1.024.128-1.984.384-2.944s.64-1.792 1.088-2.624 1.024-1.536 1.728-2.24c.704-.64 1.408-1.216 2.24-1.728S17.088.64 18.048.384C19.008.128 19.968 0 20.992 0zm0 19.968c1.216 0 2.432-.256 3.52-.704s2.048-1.088 2.88-1.92 1.472-1.792 1.92-2.88.704-2.24.704-3.52-.256-2.432-.704-3.52-1.088-2.048-1.92-2.88S25.6 3.2 24.512 2.688c-1.088-.448-2.24-.704-3.52-.704s-2.432.256-3.52.704-2.048 1.088-2.88 1.92-1.472 1.792-1.92 2.88-.704 2.24-.704 3.52.256 2.432.704 3.52 1.088 2.048 1.92 2.88 1.792 1.472 2.88 1.92c1.152.448 2.304.64 3.52.64z"></path></svg>